<svg version="1.1" xmlns="http://www.w3.org/2000/svg" xmlns:xlink="http://www.w3.org/1999/xlink" width="26.6" height="26.6" viewBox="0,0,26.6,26.6"><g transform="translate(-226.7,-166.7)"><g data-paper-data="{&quot;isPaintingLayer&quot;:true}" fill="#5da8da" fill-rule="nonzero" stroke="none" stroke-width="1" stroke-linecap="butt" stroke-linejoin="miter" stroke-miterlimit="10" stroke-dasharray="" stroke-dashoffset="0" style="mix-blend-mode: normal"><path d="M252.7,189.9c0.8,0.8 0.8,2 0,2.8c-0.8,0.8 -2,0.8 -2.8,0l-9.9,-9.9l-9.9,9.9c-0.8,0.8 -2,0.8 -2.8,0c-0.8,-0.8 -0.8,-2 0,-2.8l9.9,-9.9l-9.9,-9.9c-0.8,-0.8 -0.8,-2 0,-2.8c0.8,-0.8 2,-0.8 2.8,0l9.9,9.9l9.9,-9.9c0.8,-0.8 2,-0.8 2.8,0v0c0.8,0.8 0.8,2 0,2.8l-9.9,9.9z"/></g></g></svg>